 <svg display="none" xmlns="http://www.w3.org/2000/svg">
<!-- телегамм -->
    <symbol id="telegramIcon" viewBox="0 0 512 512">
        <path
        d="m354.5155 155.4348c3.142 0 4.7134 1.0049 4.7134 3.0284a7.0835 7.0835 0 0 1 -.1683 1.1757q-.1692.8409-144.234 130.7715l-5.0484 49.1436-23.5626-77.417q167.2913-106.7022 168.3-106.7022zm53.52-48.8086q-2.0189 0-317.4123 117.8106-7.743 3.0249-7.7425 11.1084 1.01 7.7417 8.0792 10.0967l76.744 23.8981 30.9661 93.2357q3.03 8.08 12.1185 8.08a11.4322 11.4322 0 0 0 7.7417-3.3632l43.4218-40.7286 78.427 56.8819a15.1793 15.1793 0 0 0 9.4251 3.37q13.1276 0 16.1567-13.1318l53.1828-255.1377a10.1546 10.1546 0 0 0 -3.5342-8.7569q-3.8709-3.3633-7.5742-3.3633zm-153.4355-100.6455c136.8554 0 247.8 110.9473 247.8 247.8028s-110.9448 247.7959-247.8 247.7959-247.8-110.9405-247.8-247.7959 110.9435-247.8028 247.8-247.8028z"
        fill-rule="evenodd"></path>
    </symbol>

<!-- воцап -->
    <symbol id="whatsappIcon" viewBox="0 0 176 176">
        <path
        d="m118.43 57.57-.22-.22a42.72 42.72 0 0 0 -68.28 49.59l1.88 3.7-3.5 17-.05.22 16.89-4 3.85 1.95a42.78 42.78 0 0 0 49.22-8 42.72 42.72 0 0 0 .22-60.19zm-1.72 47.72c-2.07 3.26-5.34 7.24-9.45 8.23-7.2 1.75-18.25.06-32-12.75l-.17-.16c-12.09-11.2-15.23-20.53-14.47-27.93.42-4.21 3.92-8 6.87-10.49a3.94 3.94 0 0 1 6.15 1.41l4.45 10.06a3.89 3.89 0 0 1 -.49 4l-2.25 2.92a3.88 3.88 0 0 0 -.35 4.27c1.26 2.2 4.28 5.45 7.63 8.47 3.76 3.39 7.93 6.5 10.57 7.57a3.85 3.85 0 0 0 4.19-.89l2.61-2.63a4 4 0 0 1 3.9-1l10.57 3a4 4 0 0 1 2.24 5.92z"
        />
        <path
        d="m88 0a88 88 0 1 0 88 88 88 88 0 0 0 -88-88zm54.53 89.3a54.57 54.57 0 0 1 -78.82 47.11l-27.55 6.53a2.13 2.13 0 0 1 -2.24-.87 2.09 2.09 0 0 1 -.33-1.63l5.79-28.11a54.56 54.56 0 1 1 103.15-23z"
        />
    </symbol>

<!-- локация -->
    <symbol id="locationIcon" viewBox="0 0 44 57.408">
       <path d="m22.03 36.888c8.271 0 15-6.729 15-15s-6.729-15-15-15-15 6.729-15 15 6.729 15 15 15zm3-9.001c0 .553-.448 1-1 1h-4c-.552 0-1-.447-1-1v-6c0-.553.448-1 1-1h4c.552 0 1 .447 1 1zm-14.707-5.292c-.391-.391-.391-1.023 0-1.414l5-5 6-6c.39-.391 1.024-.391 1.414 0l6 6 5 5c.391.391.391 1.023 0 1.414-.195.195-.451.293-.707.293s-.512-.098-.707-.293l-3.293-3.293v11.586c0 .553-.448 1-1 1s-1-.447-1-1v-13.586l-5-5-5 5v13.586c0 .553-.448 1-1 1s-1-.447-1-1v-11.586l-3.293 3.293c-.195.195-.451.293-.707.293s-.512-.098-.707-.293z"/><path d="m21.03 22.887h2v4h-2z"/><path d="m21.03 48.888c0-.553.448-1 1-1s1 .447 1 1v8.408c2.606-2.679 21-22.01 21-34.007 0-12.903-9.869-23.4-22-23.4s-22 10.497-22 23.4c0 11.997 18.394 31.328 21 34.007zm1-44.001c9.374 0 17 7.626 17 17s-7.626 17-17 17-17-7.626-17-17 7.626-17 17-17z"/>
    </symbol>
<!-- почта -->
    <symbol  id="emailIcon" viewBox="0 0 512 512">
        <path d="m437.019531 74.980469c-48.351562-48.351563-112.640625-74.980469-181.019531-74.980469s-132.667969 26.628906-181.019531 74.980469c-48.351563 48.351562-74.980469 112.640625-74.980469 181.019531s26.628906 132.667969 74.980469 181.019531c48.351562 48.351563 112.640625 74.980469 181.019531 74.980469s132.667969-26.628906 181.019531-74.980469c48.351563-48.351562 74.980469-112.640625 74.980469-181.019531s-26.628906-132.667969-74.980469-181.019531zm-15.722656 200.363281c-3.566406 30.800781-29.6875 54.023438-60.761719 54.023438-20.246094 0-38.214844-9.894532-49.355468-25.09375-13.457032 15.367187-33.199219 25.09375-55.179688 25.09375-40.457031 0-73.367188-32.910157-73.367188-73.367188s32.910157-73.367188 73.367188-73.367188c16.230469 0 31.242188 5.304688 43.40625 14.261719.386719-7.9375 6.925781-14.261719 14.960938-14.261719 8.285156 0 15 6.714844 15 15v70.566407c0 17.1875 13.984374 31.167969 31.167968 31.167969 15.835938 0 29.148438-11.8125 30.960938-27.476563.648437-5.59375.953125-11.304687.910156-16.980469-.582031-74.5625-61.730469-135.265625-136.308594-135.320312-.03125 0-.070312 0-.101562 0-36.4375 0-70.683594 14.1875-96.453125 39.957031-25.789063 25.789063-39.980469 60.082031-39.953125 96.558594.027344 36.089843 14.488281 70.300781 40.722656 96.328125 26.007812 25.804687 59.964844 39.976562 95.71875 39.976562.324219 0 .644531 0 .96875-.003906 20.390625-.144531 39.96875-4.675781 58.191406-13.464844 7.457032-3.597656 16.425782-.46875 20.027344 6.992188 3.597656 7.460937.464844 16.429687-6.996094 20.027344-22.253906 10.734374-46.144531 16.269531-71.007812 16.445312-.398438.003906-.796875.003906-1.191406.003906-43.71875 0-85.167969-17.257812-116.839844-48.679687-31.949219-31.699219-49.5625-73.464844-49.59375-117.605469-.03125-44.496094 17.277344-86.328125 48.738281-117.792969 31.4375-31.433593 73.21875-48.742187 117.667969-48.742187h.125c90.980468.066406 165.574218 74.121094 166.285156 165.085937.054688 6.902344-.320312 13.855469-1.109375 20.667969zm0 0"/><path d="m256 212.632812c-23.914062 0-43.367188 19.453126-43.367188 43.367188s19.453126 43.367188 43.367188 43.367188 43.367188-19.453126 43.367188-43.367188-19.453126-43.367188-43.367188-43.367188zm0 0"/>
    </symbol>
<!-- телефон -->
    <symbol   id="phoneIcon" viewBox="0 0 512 512">
        <path d="m332.354 305.233 59.409 59.41-10.04 10.039c-19.216 19.216-49.836 25.131-86.213 16.653-37.737-8.793-76.753-31.871-109.864-64.981s-56.188-72.127-64.981-109.863c-8.477-36.38-2.563-67 16.653-86.214l10.039-10.04 59.41 59.409-26.075 26.076c-3.4 3.4-6.828 9.815-3.82 21.041 8.988 33.547 74.817 99.377 108.364 108.366 11.224 3.007 17.638-.418 21.042-3.819zm179.646-49.233c0 141.159-114.841 256-256 256s-256-114.841-256-256 114.841-256 256-256 256 114.841 256 256zm-282.872-136.694a8 8 0 0 0 10.051 5.193c39.235-12.5 85.063-.107 116.748 31.576s44.073 77.507 31.573 116.746a8 8 0 1 0 15.244 4.858c6.956-21.835 7.432-45.714 1.375-69.056a142.531 142.531 0 0 0 -100.742-100.743c-23.342-6.057-47.221-5.581-69.056 1.375a8 8 0 0 0 -5.193 10.051zm120.878 141.666a8 8 0 1 0 14.994 5.59c12.007-32.208 2.827-69.958-23.388-96.172s-63.965-35.39-96.174-23.39a8 8 0 0 0 5.59 15c26.353-9.829 57.472-2.1 79.272 19.7s29.532 52.917 19.706 79.272zm-37.623-12.655a8 8 0 1 0 14.055 7.647c10.265-18.872 5.965-43.522-10.457-59.944s-41.073-20.725-59.945-10.457a8 8 0 1 0 7.647 14.054c12.682-6.9 29.54-3.729 40.984 7.717s14.617 28.297 7.716 40.983zm96.35 110.668-70.722-70.722a8 8 0 0 0 -11.315 0l-31.732 31.737c-.184.185-1.758.7-5.587-.321-27.9-7.476-89.575-69.153-97.05-97.052-1.026-3.83-.506-5.4-.321-5.586l31.731-31.741a8 8 0 0 0 0-11.314l-70.722-70.722a8 8 0 0 0 -11.315 0l-15.7 15.7c-23.271 23.27-30.7 59.195-20.922 101.158 9.463 40.607 34.057 82.352 69.25 117.546s76.94 59.787 117.546 69.25a152.447 152.447 0 0 0 34.527 4.2c27.039 0 50.049-8.539 66.632-25.121l15.7-15.7a8 8 0 0 0 0-11.312z"/>
    </symbol>


    <symbol id="Icon"></symbol>
    <symbol id="Icon"></symbol>
    <symbol id="Icon"></symbol>
    <symbol id="Icon"></symbol>
    <symbol id="Icon"></symbol>
    <symbol id="Icon"></symbol>
    <symbol id="Icon"></symbol>
</svg>